<svg xmlns="http://www.w3.org/2000/svg" viewBox="0 0 100 100">
  <!-- Pin body -->
  <path d="M50 8 C28 8 16 24 16 40 C16 60 50 92 50 92 C50 92 84 60 84 40 C84 24 72 8 50 8Z" fill="#4ade80" stroke="#166534" stroke-width="4"/>
  <!-- Inner pin highlight -->
  <path d="M50 14 C32 14 22 27 22 40 C22 57 50 85 50 85 C50 85 78 57 78 40 C78 27 68 14 50 14Z" fill="#22c55e"/>
  <!-- Golf ball circle -->
  <circle cx="50" cy="38" r="18" fill="white" stroke="#166534" stroke-width="3"/>
  <!-- Ball dimples -->
  <circle cx="44" cy="33" r="2" fill="#d1d5db"/>
  <circle cx="52" cy="31" r="2" fill="#d1d5db"/>
  <circle cx="60" cy="35" r="2" fill="#d1d5db"/>
  <circle cx="58" cy="43" r="2" fill="#d1d5db"/>
  <circle cx="48" cy="44" r="2" fill="#d1d5db"/>
  <circle cx="41" cy="40" r="2" fill="#d1d5db"/>
</svg>
